<svg version="1.1" xmlns="http://www.w3.org/2000/svg" xmlns:xlink="http://www.w3.org/1999/xlink" width="165.96965" height="212.77956" viewBox="0,0,165.96965,212.77956"><g transform="translate(-157.01517,-73.61022)"><g data-paper-data="{&quot;isPaintingLayer&quot;:true}" fill="#ffffff" fill-rule="nonzero" stroke="none" stroke-width="0" stroke-linecap="butt" stroke-linejoin="miter" stroke-miterlimit="10" stroke-dasharray="" stroke-dashoffset="0" style="mix-blend-mode: normal"><path d="M160.20823,181.72466c-9.43213,-27.96188 2.74019,-58.38078 27.18751,-67.94246c24.44732,-9.56168 103.36062,-40.17198 103.36062,-40.17198c0,0 -15.01581,33.43327 -32.95131,70.10533c-14.38447,5.33705 -23.20311,9.5598 -36.50775,14.80372c-8.67485,4.08263 -15.89026,11.34784 -12.32649,24.45803c4.10979,12.84832 15.47484,13.23922 23.10817,10.61263c-6.31182,12.89229 -10.50474,21.44278 -10.52676,21.45135c-24.44732,9.56168 -51.91198,-5.35469 -61.34406,-33.31664z"/><path d="M319.79175,178.27534c9.43215,27.96188 -2.74017,58.38085 -27.18751,67.94253c-24.44734,9.56168 -103.36067,40.17191 -103.36067,40.17191c0,0 15.01576,-33.43327 32.95131,-70.10535c14.38447,-5.33705 23.20311,-9.55973 36.50775,-14.80365c8.67485,-4.08263 15.89026,-11.34786 12.32649,-24.45803c-4.10979,-12.84832 -15.47489,-13.23922 -23.10824,-10.61263c6.31189,-12.89229 10.50472,-21.44278 10.52674,-21.4513c24.44734,-9.56168 51.91198,5.35469 61.34406,33.31664z"/></g></g></svg>